<mxfile host="app.diagrams.net" modified="2023-12-14T09:54:50.011Z" agent="Mozilla/5.0 (Windows NT 10.0; Win64; x64) AppleWebKit/537.36 (KHTML, like Gecko) Chrome/120.0.0.0 Safari/537.36" version="22.1.8" etag="uB0NOVwN7-hF_ZHMhYmf" type="github">
  <diagram name="Page-1" id="LgxAEyRyWyp1UOA5L4Ms">
    <mxGraphModel>
      <root>
        <mxCell id="0" />
        <mxCell id="1" parent="0" />
      </root>
    </mxGraphModel>
  </diagram>
</mxfile>
